<svg width="617" height="240" viewBox="0 0 617 240" fill="none" xmlns="http://www.w3.org/2000/svg">
<path d="M577.764 166.714H546.667V83.8443H507.466V55.8904H616.8V83.8443H577.764V166.714Z" fill="white"/>
<path d="M500.014 166.714H468.918V55.8904H500.014V166.714Z" fill="white"/>
<path d="M392.758 166.714H361.661V55.8904H460.74V83.8443H392.758V100.385H458.259V128.174H392.758V166.714Z" fill="white"/>
<path d="M352.822 166.714H254.405V55.8904H352.822V83.8443H285.501V97.0769H350.341V124.865H285.501V138.76H352.822V166.714Z" fill="white"/>
<path d="M174.691 166.714H143.595V55.8904H204.961C231.261 55.8904 247.801 70.9425 247.801 97.2424C247.801 123.542 231.261 138.76 204.961 138.76H174.691V166.714ZM201.487 83.8443H174.691V110.806H201.487C212.404 110.806 216.87 108.655 216.87 97.2424C216.87 85.9946 212.404 83.8443 201.487 83.8443Z" fill="white"/>
<path d="M34.901 166.714H0L47.8028 55.8904H92.2975L140.266 166.714H104.538L96.1019 146.203H43.5022L34.901 166.714ZM61.6971 102.701L55.2462 118.249H84.6887L78.2378 102.701L70.9599 84.0097H68.8096L61.6971 102.701Z" fill="white"/>
<g clip-path="url(#clip0_6_587)">
<path d="M489.094 14.7382C489.062 14.7939 489.013 14.8382 488.954 14.8654C488.895 14.8926 488.83 14.9013 488.766 14.8903C488.702 14.8794 488.643 14.8494 488.597 14.8042C488.551 14.759 488.52 14.7009 488.507 14.6375C488.447 14.3736 488.38 14.0834 488.305 13.8118C485.381 2.49011 468.327 6.39943 470.627 17.8641C470.683 18.1419 470.743 18.419 470.806 18.6952C470.87 18.974 470.564 19.1929 470.321 19.0416C470.084 18.8929 469.837 18.7422 469.597 18.5998C459.572 12.652 450.307 27.5658 459.981 34.0495C460.216 34.2065 460.453 34.3611 460.693 34.5137C472.246 41.812 484.76 38.9447 484.763 38.9441C484.765 38.9436 497.28 36.0737 504.501 24.4716C504.652 24.2302 504.798 23.9881 504.94 23.744C510.822 13.6838 495.98 4.30602 489.554 14.0251C489.395 14.2592 489.242 14.497 489.094 14.7382Z" fill="white" stroke="white" stroke-width="4.641" stroke-miterlimit="10"/>
<path fill-rule="evenodd" clip-rule="evenodd" d="M488.92 23.7913C488.656 23.8518 488.653 24.2568 488.868 24.4213C489.263 24.7241 489.54 25.1557 489.65 25.6412C489.913 26.7884 489.203 27.9302 488.063 28.1914C486.923 28.4527 485.787 27.7344 485.524 26.5871C485.51 26.5256 485.423 26.5132 485.399 26.5712C485.176 27.0959 485.072 27.6516 485.104 28.2026C485.122 28.5129 484.937 28.8156 484.634 28.8851L484.467 28.9234C484.071 29.014 483.671 28.7664 483.64 28.3619C483.426 25.5895 485.603 23.0441 488.592 22.359C491.58 21.674 494.649 23.0166 495.664 25.6055C495.812 25.9828 495.56 26.3804 495.164 26.4711C494.769 26.5618 494.382 26.3094 494.207 25.943C493.413 24.2758 491.27 23.2526 488.92 23.7913ZM471.038 29.9076C471.02 29.827 470.906 29.8073 470.871 29.8829C470.628 30.4196 470.509 30.9913 470.534 31.5599C470.549 31.8959 470.35 32.2228 470.022 32.2979L469.899 32.3261C469.504 32.4167 469.104 32.169 469.073 31.7645C468.858 28.9914 471.036 26.4471 474.025 25.7621C477.013 25.0771 480.083 26.4179 481.097 29.0085C481.245 29.3854 480.993 29.7835 480.598 29.8742C480.202 29.9648 479.815 29.712 479.64 29.3457C478.846 27.6775 476.703 26.6557 474.353 27.1944C474.14 27.2434 474.131 27.563 474.31 27.6889C474.743 27.9925 475.047 28.4462 475.164 28.9618C475.427 30.109 474.717 31.2508 473.577 31.512C472.438 31.7732 471.301 31.0549 471.038 29.9076ZM486.559 31.3844C486.169 31.2743 485.768 31.509 485.553 31.8532C485.137 32.5155 484.405 33.0718 483.46 33.2885C482.513 33.5057 481.613 33.3279 480.952 32.9114C480.608 32.6954 480.145 32.6564 479.841 32.9244C479.536 33.1926 479.504 33.6627 479.824 33.9127C480.87 34.7313 482.335 35.0533 483.788 34.7201C485.243 34.3867 486.417 33.4521 487.003 32.2683C487.182 31.9043 486.95 31.4944 486.559 31.3844L486.559 31.3844Z" fill="black"/>
</g>
<path d="M598.593 238.394H586.319V205.686H570.846V194.653H614V205.686H598.593V238.394Z" fill="black"/>
<path d="M567.905 238.394H555.631V194.653H567.905V238.394Z" fill="black"/>
<path d="M525.571 238.394H513.298V194.653H552.404V205.686H525.571V212.215H551.425V223.183H525.571V238.394Z" fill="black"/>
<path d="M485.809 238.394H473.535V205.686H458.062V194.653H501.216V205.686H485.809V238.394Z" fill="black"/>
<path d="M455.553 238.394H416.708V194.653H455.553V205.686H428.981V210.909H454.573V221.877H428.981V227.361H455.553V238.394Z" fill="black"/>
<path d="M385.836 239.047C372.06 239.047 364.03 230.168 364.03 216.524C364.03 202.879 373.431 194 389.361 194C404.181 194 412.994 200.529 412.994 211.366V211.823H399.284V211.366C399.284 207.318 396.804 205.751 389.035 205.751C379.633 205.751 377.087 207.841 377.087 216.524C377.087 225.207 379.503 227.296 388.382 227.296C397.456 227.296 400.068 226.839 400.655 223.509H387.207V214.5H413.06V238.394H401.635V229.059H400.982C399.807 234.151 396.085 239.047 385.836 239.047Z" fill="black"/>
<path d="M352.077 238.394H313.232V194.653H352.077V205.686H325.506V210.909H351.098V221.877H325.506V227.361H352.077V238.394Z" fill="black"/>
<path d="M281.769 238.394H269.496V194.653H293.717C304.097 194.653 310.626 200.594 310.626 210.974C310.626 221.355 304.097 227.361 293.717 227.361H281.769V238.394ZM292.346 205.686H281.769V216.328H292.346C296.654 216.328 298.417 215.479 298.417 210.974C298.417 206.535 296.654 205.686 292.346 205.686Z" fill="black"/>
<path d="M226.595 238.394H212.819L231.687 194.653H249.249L268.182 238.394H254.08L250.75 230.299H229.989L226.595 238.394ZM237.171 213.129L234.625 219.266H246.246L243.699 213.129L240.827 205.751H239.978L237.171 213.129Z" fill="black"/>
<path d="M202.825 238.394H163.98V194.653H202.825V205.686H176.254V210.909H201.846V221.877H176.254V227.361H202.825V238.394Z" fill="black"/>
<path d="M128.5 238.394H116.227V194.653H128.5V210.909H137.314L147.956 194.653H162.645L147.499 216.132L162.319 238.394H147.629L137.445 222.856H128.5V238.394Z" fill="black"/>
<path d="M73.3257 238.394H59.5504L78.418 194.653H95.9799L114.913 238.394H100.811L97.4815 230.299H76.7206L73.3257 238.394ZM83.9021 213.129L81.3559 219.266H92.9768L90.4306 213.129L87.5581 205.751H86.7093L83.9021 213.129Z" fill="black"/>
<path d="M12.2737 238.394H0V194.653H16.6479L24.6781 212.802L28.9869 224.097H29.8357L33.9487 212.802L41.5871 194.653H58.235V238.394H45.9613V220.31L46.4183 212.998H45.5696L43.0887 220.31L36.5601 235.783H21.6749L15.1463 220.31L12.6655 212.998H11.8167L12.2737 220.31V238.394Z" fill="black"/>
<defs>
<clipPath id="clip0_6_587">
<rect width="53.9751" height="34.8227" fill="white" transform="translate(450.866 12.0601) rotate(-12.9111)"/>
</clipPath>
</defs>
</svg>
